<svg xmlns="http://www.w3.org/2000/svg" viewBox="0 0 825 825"><path d="M674.2 812.5h-523.4c-76.1 0-138.3-62.2-138.3-138.3v-523.4c0-76.1 62.2-138.3 138.3-138.3h523.4c76.1 0 138.3 62.2 138.3 138.3v523.4c0 76.1-62.2 138.3-138.3 138.3z" fill="#fff" stroke="#09090b" stroke-miterlimit="10"/><path d="M189.3 553.6c3.7 0 6.7 1.3 9.3 3.9 2.6 2.6 3.9 5.7 3.9 9.3v45.8h-46.8c-3.7 0-6.7-1.3-9.3-3.9-2.6-2.6-3.9-5.7-3.9-9.3v-21.8h49v-10.8c0-.6-.2-1.1-.6-1.6-.5-.5-.9-.6-1.6-.6h-46.8v-11h46.8zm2.2 48v-13h-38v10.8c0 .6.2 1.1.6 1.6s.9.6 1.6.6h35.8zm105.9-48h11.7l-22.2 59h-9l-19.8-43.8-18.7 43.8-.2-.1.1.1h-8.9l-23.2-59h11.6l16 39.1 17-39.1h12.6l18 39.1 15-39.1zm62 0c3.7 0 6.7 1.3 9.3 3.9 2.6 2.6 3.9 5.7 3.9 9.3v21.8h-49v10.8c0 .6.2 1.1.6 1.6s.9.6 1.6.6h46.8v11h-46.8c-3.7 0-6.7-1.3-9.3-3.9s-3.9-5.7-3.9-9.3v-32.6c0-3.7 1.3-6.7 3.9-9.3 2.6-2.6 5.7-3.9 9.3-3.9h33.6zm-35.8 24h38v-10.8c0-.6-.2-1.1-.6-1.6-.5-.5-.9-.6-1.6-.6h-33.6c-.6 0-1.1.2-1.6.6-.5.5-.6.9-.6 1.6v10.8zm119-10.7v2.2h-11v-2.2c0-.6-.2-1.1-.6-1.6-.5-.5-.9-.6-1.6-.6h-33.6c-.6 0-1.1.2-1.6.6-.5.5-.6.9-.6 1.6v8.6c0 .6.2 1.1.6 1.6.5.5.9.6 1.6.6h33.6c3.7 0 6.7 1.3 9.3 3.9 2.6 2.6 3.9 5.7 3.9 9.3v8.6c0 3.7-1.3 6.7-3.9 9.3s-5.7 3.9-9.3 3.9h-33.6c-3.7 0-6.7-1.3-9.3-3.9-2.6-2.6-3.9-5.7-3.9-9.3v-2.2h11v2.2c0 .6.2 1.1.6 1.6.5.5.9.6 1.6.6h33.6c.6 0 1.1-.2 1.6-.6.5-.5.6-.9.6-1.6v-8.6c0-.6-.2-1.1-.6-1.6-.5-.5-.9-.6-1.6-.6h-33.6c-3.7 0-6.7-1.3-9.3-3.9-2.6-2.6-3.9-5.7-3.9-9.3v-8.6c0-3.7 1.3-6.7 3.9-9.3 2.6-2.6 5.7-3.9 9.3-3.9h33.6c3.7 0 6.7 1.3 9.3 3.9 2.6 2.5 3.9 5.6 3.9 9.3zm23.3-13.3h33.6c3.7 0 6.7 1.3 9.3 3.9 2.6 2.6 3.9 5.7 3.9 9.3v32.6c0 3.7-1.3 6.7-3.9 9.3-2.6 2.6-5.7 3.9-9.3 3.9h-33.6c-3.7 0-6.7-1.3-9.3-3.9-2.6-2.6-3.9-5.7-3.9-9.3v-32.6c0-3.7 1.3-6.7 3.9-9.3 2.6-2.6 5.7-3.9 9.3-3.9zm33.6 11h-33.6c-.6 0-1.1.2-1.6.6s-.6.9-.6 1.6v32.6c0 .6.2 1.1.6 1.6s.9.6 1.6.6h33.6c.6 0 1.1-.2 1.6-.6s.6-.9.6-1.6v-32.6c0-.6-.2-1.1-.6-1.6-.5-.3-1-.6-1.6-.6zm99.2-11c3.7 0 6.7 1.3 9.3 3.9 2.6 2.6 3.9 5.7 3.9 9.3v45.8h-10.9v-45.8c0-.6-.2-1.1-.6-1.6-.5-.5-1-.6-1.7-.6h-23.3c-.6 0-1.1.2-1.6.6-.5.5-.6.9-.6 1.6v45.8h-11v-45.8c0-.6-.2-1.1-.6-1.6-.5-.5-.9-.6-1.6-.6h-23.3c-.6 0-1.1.2-1.6.6-.5.5-.6.9-.6 1.6v45.8h-11v-59h75.2zm70.6 0c3.7 0 6.7 1.3 9.3 3.9 2.6 2.6 3.9 5.7 3.9 9.3v21.8h-49v10.8c0 .6.2 1.1.6 1.6.5.5.9.6 1.6.6h46.8v11h-46.8c-3.7 0-6.7-1.3-9.3-3.9s-3.9-5.7-3.9-9.3v-32.6c0-3.7 1.3-6.7 3.9-9.3 2.6-2.6 5.7-3.9 9.3-3.9h33.6zm-35.8 24h38v-10.8c0-.6-.2-1.1-.6-1.6-.5-.5-.9-.6-1.6-.6h-33.6c-.6 0-1.1.2-1.6.6-.5.5-.6.9-.6 1.6v10.8z" fill="#09090b"/><path d="M682.4 339.4l-138.4-127-19.5 21.2 115.4 105.8h-454.8l115.4-105.9-19.5-21.2-138.4 127.1h-.1v83.7c0 37.8 36.5 68.7 81.2 68.7h85.4c44.8 0 81.2-30.8 81.2-68.7v-55h44.3v55c0 37.8 36.5 68.7 81.2 68.7h85.4c44.8 0 81.2-30.8 81.2-68.7v-83.7z" fill="#244bf9"/></svg>